<?xml version="1.0" encoding="UTF-8"?>
<svg id="Layer_1" data-name="Layer 1" xmlns="http://www.w3.org/2000/svg" viewBox="0 0 512 512">
  <defs>
    <style>
      .cls-1 {
        fill-rule: evenodd;
      }

      .cls-2 {
        fill: #00aee8;
      }
    </style>
  </defs>
  <circle class="cls-2" cx="256" cy="256" r="256"/>
  <path class="cls-1" d="M333.99,167.58l-156.01.03c-31.18,0-51.98,20.8-51.98,52.01v72.8c0,31.22,20.8,51.99,51.98,51.95h124.81c10.4.04,20.78-10.35,20.78-20.73l-.02-36.41c.02-9-6.68-15.59-15.25-15.59-9.7,0-15.92,6.1-15.92,15.59v25.99h-114.41c-10.4,0-20.8-10.4-20.8-20.8v-72.8c0-10.4,10.4-20.78,20.8-20.82l156.01.04c10.42,0,20.82,10.38,20.82,20.78v109.22c0,8.2,6.25,15.57,15.59,15.57,8.84,0,15.59-4.96,15.59-15.57v-109.22c0-31.2-20.78-52.01-52.01-52.04h0Z"/>
</svg>